<svg width="32" height="32" viewBox="0 0 32 32" fill="none" xmlns="http://www.w3.org/2000/svg">
<path d="M11.6667 30.0013C14.244 30.0013 16.3334 27.912 16.3334 25.3346V20.668H11.6667C9.08934 20.668 7 22.7573 7 25.3346C7 27.912 9.08934 30.0013 11.6667 30.0013Z" fill="#522CED"/>
<path d="M7 15.9987C7 13.4214 9.08934 11.332 11.6667 11.332H16.3334V20.6654H11.6667C9.08934 20.6654 7 18.576 7 15.9987Z" fill="#522CED"/>
<path d="M7 6.66668C7 4.08934 9.08934 2 11.6667 2H16.3334V11.3334H11.6667C9.08934 11.3334 7 9.24402 7 6.66668Z" fill="#522CED"/>
<path d="M16.3438 2H21.0104C23.5878 2 25.6771 4.08934 25.6771 6.66668C25.6771 9.24402 23.5878 11.3334 21.0104 11.3334H16.3438V2Z" fill="#522CED"/>
<path d="M25.6771 15.9987C25.6771 18.576 23.5878 20.6654 21.0104 20.6654C18.4331 20.6654 16.3438 18.576 16.3438 15.9987C16.3438 13.4214 18.4331 11.332 21.0104 11.332C23.5878 11.332 25.6771 13.4214 25.6771 15.9987Z" fill="#522CED"/>
</svg>
