<svg width="32" height="32" viewBox="0 0 32 32" fill="none"
    xmlns="http://www.w3.org/2000/svg">
    <path fill-rule="evenodd" clip-rule="evenodd" d="M3.66016 10.337H8.72777V27.9983H3.66016V10.337ZM6.06044 8.12793H6.02375C4.18932 8.12793 3 6.77782 3 5.06813C3 3.32347 4.22448 2 6.0956 2C7.96519 2 9.11477 3.32014 9.15146 5.06313C9.15146 6.77283 7.96519 8.12793 6.06044 8.12793ZM28.9981 27.9997H23.2518V18.8585C23.2518 16.4663 22.3529 14.8348 20.3763 14.8348C18.8644 14.8348 18.0236 15.9352 17.6323 16.999C17.4855 17.3786 17.5085 17.9096 17.5085 18.4423V27.9997H11.8156C11.8156 27.9997 11.889 11.8083 11.8156 10.3367H17.5085V13.1085C17.8448 11.8966 19.6639 10.1669 22.5669 10.1669C26.1685 10.1669 28.9981 12.709 28.9981 18.1777V27.9997Z" fill="#522CED"/>
</svg>
