<svg width="32" height="32" viewBox="0 0 32 32" fill="none" xmlns="http://www.w3.org/2000/svg">
<path fill-rule="evenodd" clip-rule="evenodd" d="M8.43359 13.7796C6.77161 12.7136 5.77546 12.0725 5.44496 11.8567C4.84248 11.4789 4.27381 10.9593 3.73932 10.2981C3.20483 9.63689 2.9375 9.02273 2.9375 8.45595C2.9375 7.75435 3.13916 7.16951 3.54249 6.70161C3.94582 6.23387 4.52164 6 5.26996 6H26.7299C27.3613 6 27.9082 6.21134 28.3698 6.63419C28.8315 7.05705 29.0625 7.56536 29.0625 8.15914C29.0625 8.86986 28.8245 9.5491 28.348 10.1965C27.8717 10.8443 27.279 11.3977 26.5695 11.8563C22.9153 14.2044 20.6408 15.6663 19.7468 16.242C19.6496 16.3051 19.443 16.4421 19.1271 16.6536C18.8113 16.8651 18.549 17.0362 18.34 17.1666C18.131 17.2969 17.8783 17.443 17.582 17.605C17.2857 17.7666 17.006 17.8884 16.7437 17.969C16.4812 18.0502 16.2382 18.0904 16.0147 18.0904H16H15.9853C15.7618 18.0904 15.5188 18.0502 15.2563 17.969C14.994 17.8884 14.7145 17.7668 14.418 17.605C14.1215 17.4432 13.8688 17.2969 13.6598 17.1666C13.451 17.0362 13.1885 16.8651 12.8727 16.6536C12.5569 16.4423 12.3504 16.3051 12.2532 16.242C11.3687 15.6665 10.0956 14.8456 8.43359 13.7796ZM20.3446 17.9559C21.9966 16.8493 24.4169 15.2974 27.6045 13.3004C28.1587 12.9496 28.6445 12.5581 29.0625 12.1264V22.8406C29.0625 23.4346 28.8344 23.9426 28.3773 24.3656C27.9205 24.7886 27.3714 25 26.73 25H5.27014C4.62865 25 4.07948 24.7886 3.62265 24.3656C3.16583 23.9427 2.9375 23.4346 2.9375 22.8406V12.1264C3.36516 12.5672 3.85599 12.9587 4.40998 13.3004C7.92827 15.5134 10.3434 17.0653 11.6556 17.9559C12.2095 18.3337 12.659 18.6285 13.004 18.8397C13.349 19.0512 13.8084 19.267 14.3817 19.4875C14.955 19.7079 15.4897 19.8181 15.9853 19.8181H16H16.0149C16.5105 19.8181 17.045 19.7079 17.6183 19.4875C18.1918 19.267 18.651 19.0512 18.996 18.8397C19.3411 18.6285 19.7906 18.3337 20.3446 17.9559Z" fill="#522CED"/>
</svg>
