<svg width="32" height="32" viewBox="0 0 32 32" fill="none" xmlns="http://www.w3.org/2000/svg">
<g clip-path="url(#clip0_513_68507)">
<path fill-rule="evenodd" clip-rule="evenodd" d="M27.6719 4.33398H4.33854C2.73438 4.33398 1.43646 5.64648 1.43646 7.25065L1.42188 24.7507C1.42188 26.3548 2.73438 27.6673 4.33854 27.6673H27.6719C29.276 27.6673 30.5885 26.3548 30.5885 24.7507V7.25065C30.5885 5.64648 29.276 4.33398 27.6719 4.33398ZM27.6719 23.2923C27.6719 24.0944 27.0156 24.7507 26.2135 24.7507H5.79688C4.99479 24.7507 4.33854 24.0944 4.33854 23.2923V10.1673L14.4594 16.4965C15.4073 17.0944 16.6031 17.0944 17.551 16.4965L27.6719 10.1673V23.2923ZM4.33854 7.25065L16.0052 14.5423L27.6719 7.25065H4.33854Z" fill="#522CED"/>
</g>
<defs>
<clipPath id="clip0_513_68507">
<rect width="32" height="32" fill="white"/>
</clipPath>
</defs>
</svg>
