<svg width="32" height="32" viewBox="0 0 32 32" fill="none" xmlns="http://www.w3.org/2000/svg">
<path fill-rule="evenodd" clip-rule="evenodd" d="M24.6866 19.5806C23.2256 19.5806 21.8583 18.943 20.6139 17.9062L20.9167 16.4382L20.9277 16.3813C21.2005 14.8223 22.0511 12.2068 24.6866 12.2068C26.6592 12.2068 28.2636 13.861 28.2636 15.894C28.2636 17.9268 26.6592 19.5806 24.6866 19.5806ZM24.6848 8.47554C21.3228 8.47554 18.7147 10.7247 17.657 14.4323C16.0412 11.9298 14.8129 8.924 14.0995 6.39355H10.4788V16.0983C10.4788 18.0133 8.96659 19.5714 7.10801 19.5714C5.24987 19.5714 3.73795 18.0133 3.73795 16.0983V6.39355H0.117188V16.0983C0.117188 20.071 3.25348 23.3325 7.10801 23.3325C10.963 23.3325 14.0995 20.071 14.0995 16.0983V14.4735C14.801 15.9827 15.6642 17.513 16.7128 18.8665L14.4979 29.6069H18.1993L19.8059 21.8169C21.2123 22.7435 22.83 23.3325 24.6848 23.3325C28.6538 23.3325 31.8828 19.985 31.8828 15.8945C31.8828 11.8037 28.6538 8.47554 24.6848 8.47554Z" fill="#522CED"/>
</svg>
